<?xml version="1.0" encoding="utf-8"?>
<!-- Generator: Adobe Illustrator 27.9.0, SVG Export Plug-In . SVG Version: 6.00 Build 0)  -->
<svg version="1.1" id="Layer_1" xmlns="http://www.w3.org/2000/svg" xmlns:xlink="http://www.w3.org/1999/xlink" x="0px" y="0px"
	 viewBox="0 0 24 46" style="enable-background:new 0 0 24 46;" xml:space="preserve">
<style type="text/css">
	.st0{fill:none;stroke:#565656;stroke-width:2;stroke-linecap:round;stroke-linejoin:round;stroke-miterlimit:10;}
</style>
<g>
	<line class="st0" x1="12" y1="30" x2="12" y2="39"/>
	<path class="st0" d="M12,38.54c0,2.43,6,6.46,6,6.46h-6H6C6,45,12,40.97,12,38.54z"/>
	<path class="st0" d="M12,30L12,30c5.8,0,11-4.22,11-10c0-3.53-2.5-7.79-2.5-11.26C20.5,5.27,23,1,23,1H1c0,0,2.5,4.27,2.5,7.74
		C3.5,12.21,1,16.47,1,20C1,25.78,6.2,30,12,30L12,30L12,30z"/>
</g>
</svg>
