<?xml version="1.0" encoding="utf-8"?>
<!-- Generator: Adobe Illustrator 27.9.0, SVG Export Plug-In . SVG Version: 6.00 Build 0)  -->
<svg version="1.1" id="Layer_1" xmlns="http://www.w3.org/2000/svg" xmlns:xlink="http://www.w3.org/1999/xlink" x="0px" y="0px"
	 viewBox="0 0 34 46" style="enable-background:new 0 0 34 46;" xml:space="preserve">
<style type="text/css">
	.st0{fill:none;stroke:#565656;stroke-width:2;stroke-linecap:round;stroke-linejoin:round;stroke-miterlimit:10;}
</style>
<g>
	<line class="st0" x1="17" y1="20" x2="17" y2="38.54"/>
	<path class="st0" d="M17,20c2.34,0,5-1.21,5-4l0,0c0-1.1,0.9-2,2-2h1c4.42,0,8-3.58,8-8V1H1v5c0,4.42,3.58,8,8,8h1c1.1,0,2,0.9,2,2
		l0,0C12,18.79,14.66,20,17,20"/>
	<path class="st0" d="M17,38.54c0,2.43,6,6.46,6,6.46h-6h-6C11,45,17,40.97,17,38.54z"/>
</g>
</svg>
